#!OML:ASF E:\Steps\Project 1\Capture day 1\Session 2\Subject.ASF
:FULLY-SPECIFIED
:DEGREES
336
root 3.53317 17.1864 8.39128 -153.127 -8.93267 177.051
lowerback -24.5551 -3.00974 -5.27283
upperback -0.0883447 -2.69371 -0.483356
thorax 13.9462 -1.68679 1.47028
lowerneck -1.12917 -1.24167 -0.898723
upperneck 13.5113 -2.60529 2.16305
head 4.72506 -1.50114 0.755068
rclavicle -6.55989e-015 1.94809e-014
rhumerus -39.9549 -15.226 -77.1192
rradius 36.0215
rwrist -6.3988
rhand -5.10222 -54.3317
rfingers 7.12502
rthumb 20.6952 -83.2483
lclavicle -6.55989e-015 1.94809e-014
lhumerus -30.9325 -1.86065 80.1958
lradius 38.6986
lwrist 0.676429
lhand -22.3164 -12.3941
lfingers 7.12502
lthumb 4.10325 17.5462
rfemur -28.0275 7.4556 18.4242
rtibia 14.5754
rfoot -22.0052 -5.92918
rtoes -13.4006
lfemur -29.2004 -10.0541 -22.3119
ltibia 12.2126
lfoot -5.039 -7.20219
ltoes -17.1756
337
root 3.52878 17.1865 8.3789 -153.099 -8.93082 177.016
lowerback -24.6901 -3.05414 -5.33916
upperback -0.151739 -2.73804 -0.463801
thorax 13.9543 -1.71488 1.5102
lowerneck -1.10451 -1.33944 -1.01936
upperneck 13.1314 -2.69331 2.24162
head 4.58538 -1.53403 0.800897
rclavicle 6.75868e-015 1.15295e-014
rhumerus -39.7813 -15.2087 -77.1151
rradius 36.3732
rwrist -6.52015
rhand -5.03471 -53.97
rfingers 7.12502
rthumb 20.7601 -82.8795
lclavicle 6.75868e-015 1.15295e-014
lhumerus -30.9013 -1.97033 80.3829
lradius 38.744
lwrist 0.874839
lhand -22.3118 -11.8628
lfingers 7.12502
lthumb 4.10769 18.0774
rfemur -27.8132 7.35801 18.3952
rtibia 14.1955
rfoot -21.8666 -5.88956
rtoes -14.4465
lfemur -28.972 -9.80301 -22.4455
ltibia 11.8264
lfoot -4.81289 -7.49967
ltoes -15.7091
338
root 3.52298 17.1853 8.36646 -153.066 -8.88862 177.006
lowerback -24.7897 -3.09083 -5.37814
upperback -0.245648 -2.78652 -0.437669
thorax 13.9055 -1.74309 1.54272
lowerneck -1.12977 -1.3058 -1.07144
upperneck 12.6779 -2.56848 2.12216
head 4.41994 -1.46301 0.776684
rclavicle -3.37934e-015 -4.05521e-014
rhumerus -39.6454 -14.9955 -77.1827
rradius 36.8294
rwrist -6.72802
rhand -4.65805 -54.1435
rfingers 7.12502
rthumb 21.1219 -83.013
lclavicle -3.37934e-015 -4.05521e-014
lhumerus -30.8275 -1.981 80.5649
lradius 38.5831
lwrist 0.964063
lhand -22.3528 -11.9714
lfingers 7.12502
lthumb 4.06807 17.9696
rfemur -27.6958 7.33924 18.3522
rtibia 13.9827
rfoot -21.8832 -5.86376
rtoes -14.7658
lfemur -28.7323 -9.60328 -22.5411
ltibia 11.406
lfoot -4.65192 -7.68322
ltoes -14.8681
339
root 3.51473 17.1847 8.35296 -153.102 -8.80878 176.949
lowerback -24.9426 -3.11276 -5.46222
upperback -0.230773 -2.78292 -0.43431
thorax 14.0129 -1.74954 1.58905
lowerneck -1.21359 -1.21998 -1.10074
upperneck 12.1771 -2.36205 1.95566
head 4.24762 -1.34918 0.735809
rclavicle -2.40529e-014 -1.70955e-014
rhumerus -39.3514 -14.8606 -77.286
rradius 37.2199
rwrist -6.91452
rhand -4.65256 -54.5764
rfingers 7.12502
rthumb 21.1272 -83.4453
lclavicle -2.40529e-014 -1.70955e-014
lhumerus -30.5329 -1.88585 80.7629
lradius 38.2775
lwrist 0.937272
lhand -22.1745 -12.4227
lfingers 7.12502
lthumb 4.24027 17.5148
rfemur -27.5238 7.39878 18.2167
rtibia 13.8222
rfoot -21.9205 -5.81991
rtoes -14.1318
lfemur -28.4142 -9.6238 -22.6454
ltibia 11.0359
lfoot -4.58943 -7.64522
ltoes -14.9051
340
root 3.50867 17.1857 8.34217 -153.128 -8.79212 176.969
lowerback -25.1532 -3.13202 -5.48129
upperback -0.190227 -2.79123 -0.395317
thorax 14.1829 -1.75825 1.63205
lowerneck -1.17261 -1.15414 -1.27511
upperneck 11.6922 -2.21762 2.02734
head 4.06609 -1.26704 0.797981
rclavicle -8.44835e-015 -1.59028e-014
rhumerus -38.9273 -14.7712 -77.3775
rradius 37.4157
rwrist -7.03394
rhand -4.79697 -54.1907
rfingers 7.12502
rthumb 20.9885 -83.0751
lclavicle -8.44835e-015 -1.59028e-014
lhumerus -30.2216 -1.97305 80.9944
lradius 38.0266
lwrist 0.981573
lhand -21.9462 -12.2673
lfingers 7.12502
lthumb 4.46075 17.6657
rfemur -27.3997 7.47468 18.1982
rtibia 13.6926
rfoot -21.8936 -5.80116
rtoes -13.243
lfemur -28.2233 -9.66364 -22.6146
ltibia 10.8204
lfoot -4.53931 -7.61492
ltoes -13.9345
341
root 3.50495 17.185 8.33266 -153.052 -8.74389 176.98
lowerback -25.3393 -3.15034 -5.48906
upperback -0.281101 -2.81695 -0.398093
thorax 14.1805 -1.77407 1.61805
lowerneck -1.0996 -1.15329 -1.39624
upperneck 11.3551 -2.20217 2.24149
head 3.93687 -1.24758 0.892232
rclavicle -4.13472e-014 -3.45885e-014
rhumerus -38.6659 -14.5758 -77.5391
rradius 37.5758
rwrist -7.1069
rhand -4.68476 -53.9253
rfingers 7.12502
rthumb 21.0963 -82.7976
lclavicle -4.13472e-014 -3.45885e-014
lhumerus -30.1741 -2.12902 81.0963
lradius 37.9151
lwrist 0.916854
lhand -21.6463 -11.5898
lfingers 7.12502
lthumb 4.7503 18.337
rfemur -27.4181 7.44812 18.196
rtibia 13.6177
rfoot -21.8326 -5.74053
rtoes -12.9442
lfemur -28.1756 -9.53794 -22.6296
ltibia 10.6329
lfoot -4.45889 -7.69741
ltoes -12.9144
